<?xml version="1.0" encoding="iso-8859-1"?>
<!-- Generator: Adobe Illustrator 15.1.0, SVG Export Plug-In . SVG Version: 6.00 Build 0)  -->
<!DOCTYPE svg PUBLIC "-//W3C//DTD SVG 1.1//EN" "http://www.w3.org/Graphics/SVG/1.1/DTD/svg11.dtd">
<svg version="1.1" id="&#x56FE;&#x5C42;_1" xmlns="http://www.w3.org/2000/svg" xmlns:xlink="http://www.w3.org/1999/xlink" x="0px"
	 y="0px" width="54.834px" height="54.834px" viewBox="0 0 54.834 54.834" style="enable-background:new 0 0 54.834 54.834;"
	 xml:space="preserve">
<g>
	<g>
		<defs>
			<path id="SVGID_1_" d="M0,27.417C0,42.56,12.275,54.834,27.416,54.834c15.143,0,27.418-12.274,27.418-27.417
				C54.834,12.275,42.559,0,27.416,0C12.275,0,0,12.275,0,27.417"/>
		</defs>
		<clipPath id="SVGID_2_">
			<use xlink:href="#SVGID_1_"  style="overflow:visible;"/>
		</clipPath>
		
			<rect x="-5.482" y="-5.482" style="clip-path:url(#SVGID_2_);fill-rule:evenodd;clip-rule:evenodd;fill:#506975;" width="65.801" height="65.8"/>
	</g>
	<g>
		<defs>
			<path id="SVGID_3_" d="M21.934,27.417c0-3.027,2.457-5.483,5.482-5.483c3.029,0,5.484,2.456,5.484,5.483
				c0,3.029-2.455,5.484-5.484,5.484C24.391,32.901,21.934,30.446,21.934,27.417 M8.775,27.417c0,10.296,8.344,18.645,18.641,18.645
				c10.299,0,18.645-8.349,18.645-18.645c0-10.297-8.346-18.643-18.645-18.643C17.119,8.774,8.775,17.12,8.775,27.417"/>
		</defs>
		<clipPath id="SVGID_4_">
			<use xlink:href="#SVGID_3_"  style="overflow:visible;"/>
		</clipPath>
		
			<rect x="3.291" y="3.29" style="clip-path:url(#SVGID_4_);fill-rule:evenodd;clip-rule:evenodd;fill:#FFFFFF;" width="48.254" height="48.253"/>
	</g>
	<g>
		<defs>
			<path id="SVGID_5_" d="M21.592,11.245l11.816,11.68V11.11c0,0-2.352-0.925-5.908-0.925
				C23.945,10.186,21.592,11.245,21.592,11.245"/>
		</defs>
		<clipPath id="SVGID_6_">
			<use xlink:href="#SVGID_5_"  style="overflow:visible;"/>
		</clipPath>
		
			<rect x="16.109" y="4.701" style="clip-path:url(#SVGID_6_);fill-rule:evenodd;clip-rule:evenodd;fill:#FC6B4F;" width="22.783" height="23.707"/>
	</g>
	<g>
		<defs>
			<path id="SVGID_7_" d="M34.875,28.428l8.355-8.355c0,0-1.01-2.316-3.523-4.831c-2.514-2.514-4.928-3.428-4.928-3.428
				L34.875,28.428z"/>
		</defs>
		<clipPath id="SVGID_8_">
			<use xlink:href="#SVGID_7_"  style="overflow:visible;"/>
		</clipPath>
		
			<rect x="29.297" y="6.33" style="clip-path:url(#SVGID_8_);fill-rule:evenodd;clip-rule:evenodd;fill:#7838F2;" width="19.418" height="27.581"/>
	</g>
	<g>
		<defs>
			<path id="SVGID_9_" d="M32.023,33.356H43.84c0,0,0.926-2.353,0.926-5.908c0-3.554-1.062-5.907-1.062-5.907L32.023,33.356z"/>
		</defs>
		<clipPath id="SVGID_10_">
			<use xlink:href="#SVGID_9_"  style="overflow:visible;"/>
		</clipPath>
		
			<rect x="26.539" y="16.058" style="clip-path:url(#SVGID_10_);fill-rule:evenodd;clip-rule:evenodd;fill:#5698F3;" width="23.709" height="22.782"/>
	</g>
	<g>
		<defs>
			<path id="SVGID_11_" d="M26.521,34.824l8.354,8.355c0,0,2.318-1.01,4.832-3.523s3.43-4.927,3.43-4.927L26.521,34.824z"/>
		</defs>
		<clipPath id="SVGID_12_">
			<use xlink:href="#SVGID_11_"  style="overflow:visible;"/>
		</clipPath>
		
			<rect x="21.037" y="29.245" style="clip-path:url(#SVGID_12_);fill-rule:evenodd;clip-rule:evenodd;fill:#20E9F4;" width="27.582" height="19.417"/>
	</g>
	<g>
		<defs>
			<path id="SVGID_13_" d="M21.592,43.787c0,0,2.354,0.926,5.908,0.926c3.557,0,5.908-1.061,5.908-1.061l-11.816-11.68V43.787z"/>
		</defs>
		<clipPath id="SVGID_14_">
			<use xlink:href="#SVGID_13_"  style="overflow:visible;"/>
		</clipPath>
		
			<rect x="16.109" y="26.488" style="clip-path:url(#SVGID_14_);fill-rule:evenodd;clip-rule:evenodd;fill:#00FD60;" width="22.783" height="23.707"/>
	</g>
	<g>
		<defs>
			<path id="SVGID_15_" d="M11.77,34.824c0,0,1.01,2.318,3.521,4.832c2.518,2.514,4.93,3.427,4.93,3.427l-0.096-16.614L11.77,34.824
				z"/>
		</defs>
		<clipPath id="SVGID_16_">
			<use xlink:href="#SVGID_15_"  style="overflow:visible;"/>
		</clipPath>
		
			<rect x="6.285" y="20.986" style="clip-path:url(#SVGID_16_);fill-rule:evenodd;clip-rule:evenodd;fill:#ABFB5B;" width="19.418" height="27.581"/>
	</g>
	<g>
		<defs>
			<path id="SVGID_17_" d="M11.16,21.541c0,0-0.924,2.354-0.924,5.907c0,3.556,1.061,5.908,1.061,5.908l11.68-11.815H11.16z"/>
		</defs>
		<clipPath id="SVGID_18_">
			<use xlink:href="#SVGID_17_"  style="overflow:visible;"/>
		</clipPath>
		
			<rect x="4.754" y="16.058" style="clip-path:url(#SVGID_18_);fill-rule:evenodd;clip-rule:evenodd;fill:#F0E254;" width="23.707" height="22.782"/>
	</g>
	<g>
		<defs>
			<path id="SVGID_19_" d="M15.291,15.241c-2.512,2.515-3.426,4.926-3.426,4.926l16.613-0.095l-8.354-8.355
				C20.125,11.717,17.809,12.728,15.291,15.241"/>
		</defs>
		<clipPath id="SVGID_20_">
			<use xlink:href="#SVGID_19_"  style="overflow:visible;"/>
		</clipPath>
		
			<rect x="6.383" y="6.234" style="clip-path:url(#SVGID_20_);fill-rule:evenodd;clip-rule:evenodd;fill:#F6B351;" width="27.58" height="19.417"/>
	</g>
</g>
</svg>
