<?xml version="1.0" encoding="iso-8859-1"?>
<!-- Generator: Adobe Illustrator 15.1.0, SVG Export Plug-In . SVG Version: 6.00 Build 0)  -->
<!DOCTYPE svg PUBLIC "-//W3C//DTD SVG 1.1//EN" "http://www.w3.org/Graphics/SVG/1.1/DTD/svg11.dtd">
<svg version="1.1" id="&#x56FE;&#x5C42;_1" xmlns="http://www.w3.org/2000/svg" xmlns:xlink="http://www.w3.org/1999/xlink" x="0px"
	 y="0px" width="65.801px" height="65.8px" viewBox="0 0 65.801 65.8" style="enable-background:new 0 0 65.801 65.8;"
	 xml:space="preserve">
<g>
	<g>
		<defs>
			<path id="SVGID_1_" d="M17.214,41.3c-1.316-0.974-1.199-3.449-0.347-5.82c0.859-2.389,3.024-4.689,3.049-5.198
				c0.086-1.889-0.187-2.203,0-2.699c0.416-1.112,0.922-0.686,0.922-1.262c0-7.269,5.4-13.16,12.062-13.16
				s12.064,5.892,12.064,13.16c0,0.278,0.723,0,1.07,1.262c0.07,0.261,0.119,1.267,0.035,2.699
				c-0.041,0.688,1.836,1.526,2.805,5.198c0.97,3.673,0,5.404-0.485,5.82c-0.601,0.515-1.295-0.378-1.856-1.272
				c-0.522-0.836-0.931-1.672-1.035-1.354c-0.529,1.602-0.777,2.673-2.338,4.418c-0.082,0.093,1.805,0.775,2.338,2.229
				c0.512,1.395,1.507,3.604-5.006,4.297c-2.051,0.218-3.793-0.384-5.013-0.983c-1.056-0.521-1.719-1.041-1.846-1.03
				c-0.511,0.045-0.284,0-0.832,0c-0.448,0-0.478,0.033-0.9,0c-0.116-0.008-1.387,2.014-7.067,2.014
				c-4.401,0-5.543-2.771-4.656-4.297c0.885-1.523,2.363-1.968,2.154-2.209c-1.025-1.188-1.732-2.457-2.154-3.606
				c-0.105-0.286-0.193-0.564-0.262-0.831c-0.077-0.296-0.401,0.531-0.865,1.355c-0.396,0.709-0.896,1.418-1.43,1.418
				C17.488,41.447,17.351,41.402,17.214,41.3 M5.483,32.899c0,15.143,12.275,27.417,27.417,27.417
				c15.143,0,27.417-12.274,27.417-27.417c0-15.142-12.274-27.417-27.417-27.417C17.759,5.482,5.483,17.758,5.483,32.899"/>
		</defs>
		<clipPath id="SVGID_2_">
			<use xlink:href="#SVGID_1_"  style="overflow:visible;"/>
		</clipPath>
		<rect style="clip-path:url(#SVGID_2_);fill-rule:evenodd;clip-rule:evenodd;fill:#68A5E1;" width="65.801" height="65.8"/>
	</g>
</g>
</svg>
