<?xml version="1.0" encoding="iso-8859-1"?>
<!-- Generator: Adobe Illustrator 15.1.0, SVG Export Plug-In . SVG Version: 6.00 Build 0)  -->
<!DOCTYPE svg PUBLIC "-//W3C//DTD SVG 1.1//EN" "http://www.w3.org/Graphics/SVG/1.1/DTD/svg11.dtd">
<svg version="1.1" id="&#x56FE;&#x5C42;_1" xmlns="http://www.w3.org/2000/svg" xmlns:xlink="http://www.w3.org/1999/xlink" x="0px"
	 y="0px" width="65.8px" height="65.8px" viewBox="0 0 65.8 65.8" style="enable-background:new 0 0 65.8 65.8;"
	 xml:space="preserve">
<g>
	<g>
		<defs>
			<path id="SVGID_1_" d="M25.69,36.807c-1.098,0.511-1.677,1.594-1.293,2.417c0.384,0.824,1.585,1.076,2.683,0.564
				s1.678-1.594,1.293-2.418c-0.249-0.534-0.844-0.828-1.53-0.828C26.473,36.542,26.074,36.627,25.69,36.807 M28.513,36.189
				c0,0.605,0.491,1.097,1.097,1.097s1.097-0.491,1.097-1.097c0-0.604-0.491-1.097-1.097-1.097S28.513,35.585,28.513,36.189
				 M21.987,38.607c-0.579-2.973,1.847-5.944,5.413-6.638c3.567-0.694,6.929,1.154,7.506,4.128c0.577,2.972-1.846,5.944-5.413,6.637
				c-0.508,0.1-1.01,0.146-1.5,0.146C25.027,42.881,22.483,41.158,21.987,38.607 M28.616,29.679
				c-5.996,0.843-10.414,4.688-9.866,8.586c0.548,3.897,5.854,6.376,11.852,5.532c5.997-0.844,10.416-4.687,9.868-8.585
				c-0.477-3.385-4.538-5.697-9.525-5.698C30.187,29.514,29.407,29.567,28.616,29.679 M40.566,21.788c0,0,2.288-0.624,4.271,1.16
				c1.981,1.783,1.171,4.733,1.171,4.733c-0.085,0.601-0.673,1.079-1.282,1.079h-0.107c-0.611,0-0.968-0.471-0.8-1.05
				c0,0,0.754-1.724-0.303-2.979c-1.057-1.255-2.946-0.962-2.946-0.962c-0.555,0.004-1.006-0.376-1.08-0.899
				c-0.007,0.051-0.011,0.102-0.011,0.152v-0.306c0,0.052,0.004,0.103,0.011,0.153C39.563,22.333,40.018,21.862,40.566,21.788
				 M13.159,36.189c0-6.057,11.397-15.62,15.759-15.62c1.828,0,5.416,1.364,2.905,5.682c-0.069,0.121,0.824-0.259,2.126-0.636
				c1.948-0.567,4.812-1.134,6.726-0.025c3.19,1.851,0,4.821,0,5.152s6.408,0.331,6.408,5.447c0,6.057-7.538,10.967-16.926,10.967
				S13.159,42.246,13.159,36.189 M40.024,16.438c0,0,4.878-0.491,8.512,2.943c3.633,3.434,2.495,9.142,2.495,9.142
				c-0.075,0.836-0.805,1.523-1.635,1.615c0.061,0.007,0.122,0.011,0.186,0.011h-0.374c0.063,0,0.126-0.004,0.188-0.011
				c-0.806-0.092-1.344-0.781-1.227-1.617c0,0,0.894-3.459-1.284-6.587c-2.181-3.13-6.866-2.589-6.866-2.589
				c-0.834-0.001-1.541-0.609-1.628-1.43c-0.006,0.057-0.009,0.113-0.009,0.172v-0.344c0,0.059,0.003,0.115,0.009,0.172
				C38.479,17.097,39.176,16.444,40.024,16.438 M5.482,32.899c0,15.143,12.275,27.417,27.417,27.417s27.416-12.274,27.416-27.417
				c0-15.142-12.274-27.417-27.416-27.417S5.482,17.758,5.482,32.899"/>
		</defs>
		<clipPath id="SVGID_2_">
			<use xlink:href="#SVGID_1_"  style="overflow:visible;"/>
		</clipPath>
		<rect style="clip-path:url(#SVGID_2_);fill-rule:evenodd;clip-rule:evenodd;fill:#F56467;" width="65.8" height="65.8"/>
	</g>
</g>
</svg>
