<?xml version="1.0" encoding="iso-8859-1"?>
<!-- Generator: Adobe Illustrator 15.1.0, SVG Export Plug-In . SVG Version: 6.00 Build 0)  -->
<!DOCTYPE svg PUBLIC "-//W3C//DTD SVG 1.1//EN" "http://www.w3.org/Graphics/SVG/1.1/DTD/svg11.dtd">
<svg version="1.1" id="&#x56FE;&#x5C42;_1" xmlns="http://www.w3.org/2000/svg" xmlns:xlink="http://www.w3.org/1999/xlink" x="0px"
	 y="0px" width="54.833px" height="54.834px" viewBox="0 0 54.833 54.834" style="enable-background:new 0 0 54.833 54.834;"
	 xml:space="preserve">
<path style="fill:#38A6D7;" d="M0,27.416c0,15.143,12.275,27.418,27.417,27.418c15.143,0,27.416-12.275,27.416-27.418
	C54.833,12.275,42.56,0,27.417,0C12.275,0,0,12.275,0,27.416"/>
<g>
	<path style="fill:#FFFFFF;" d="M21.872,29.406l-6.145-6.145c-1.995-1.994-1.995-5.238-0.002-7.232c1.996-1.994,5.239-1.994,7.232,0
		l6.146,6.145l1.768-1.766l-6.146-6.146c-2.969-2.969-7.798-2.969-10.766,0c-2.969,2.969-2.969,7.797,0,10.766l6.146,6.146
		L21.872,29.406z"/>
	<path style="fill:#FFFFFF;" d="M32.203,25.273l6.145,6.146c1.996,1.993,1.996,5.237,0,7.232c-1.993,1.993-5.236,1.993-7.23-0.001
		l-6.146-6.145l-1.768,1.766l6.146,6.146c2.969,2.969,7.798,2.969,10.766,0c2.969-2.969,2.969-7.797,0-10.766l-6.146-6.146
		L32.203,25.273z"/>
</g>
<rect x="23.017" y="26.09" transform="matrix(-0.707 -0.7072 0.7072 -0.707 26.8209 65.7896)" style="fill:#FFFFFF;" width="8.041" height="2.499"/>
</svg>
