<?xml version="1.0" encoding="iso-8859-1"?>
<!-- Generator: Adobe Illustrator 15.1.0, SVG Export Plug-In . SVG Version: 6.00 Build 0)  -->
<!DOCTYPE svg PUBLIC "-//W3C//DTD SVG 1.1//EN" "http://www.w3.org/Graphics/SVG/1.1/DTD/svg11.dtd">
<svg version="1.1" id="&#x56FE;&#x5C42;_1" xmlns="http://www.w3.org/2000/svg" xmlns:xlink="http://www.w3.org/1999/xlink" x="0px"
	 y="0px" width="65.8px" height="65.8px" viewBox="0 0 65.8 65.8" style="enable-background:new 0 0 65.8 65.8;"
	 xml:space="preserve">
<g>
	<g>
		<defs>
			<path id="SVGID_1_" d="M22.394,49.967c-0.675-0.543,2.216-12.921,2.216-12.921s-9.787-8.149-9.387-9.149
				c0.401-1.001,12.973-1.886,12.973-1.886s4.671-11.754,5.802-11.754s5.801,11.754,5.801,11.754s12.626,0.89,12.973,1.886
				c0.348,0.995-9.386,9.149-9.386,9.149s0.121,0.792,0.26,1.381c0.009,0.039-4.543,0.144-8.274,0
				c-1.961-0.075-4.319-0.438-4.319-0.438l10.804-7.704c0,0-3.908-0.703-7.857-0.844c-4.326-0.153-8.755,0.262-9.388,0.422
				c-0.396,0.102,2.797,0.094,6.441,0.422c2.551,0.23,5.908,0.845,5.908,0.845l-10.804,8.042c0,0,4.627,0.281,8.777,0.253
				c4.67-0.031,8.886-0.612,8.912-0.5c0.812,3.519,2.312,10.474,1.755,11.042c-0.76,0.771-11.603-6.1-11.603-6.1
				s-10.086,6.131-11.478,6.131C22.463,49.998,22.421,49.988,22.394,49.967 M5.483,32.899c0,15.143,12.275,27.417,27.417,27.417
				s27.416-12.274,27.416-27.417c0-15.142-12.274-27.417-27.416-27.417S5.483,17.758,5.483,32.899"/>
		</defs>
		<clipPath id="SVGID_2_">
			<use xlink:href="#SVGID_1_"  style="overflow:visible;"/>
		</clipPath>
		<rect style="clip-path:url(#SVGID_2_);fill-rule:evenodd;clip-rule:evenodd;fill:#F5BE3F;" width="65.8" height="65.8"/>
	</g>
</g>
</svg>
