<?xml version="1.0" encoding="iso-8859-1"?>
<!-- Generator: Adobe Illustrator 15.1.0, SVG Export Plug-In . SVG Version: 6.00 Build 0)  -->
<!DOCTYPE svg PUBLIC "-//W3C//DTD SVG 1.1//EN" "http://www.w3.org/Graphics/SVG/1.1/DTD/svg11.dtd">
<svg version="1.1" id="&#x56FE;&#x5C42;_1" xmlns="http://www.w3.org/2000/svg" xmlns:xlink="http://www.w3.org/1999/xlink" x="0px"
	 y="0px" width="65.8px" height="65.801px" viewBox="0 0 65.8 65.801" style="enable-background:new 0 0 65.8 65.801;"
	 xml:space="preserve">
<g>
	<defs>
		<path id="SVGID_1_" d="M35.094,33.997c0,0.605,0.49,1.097,1.096,1.097c0.606,0,1.096-0.491,1.096-1.097S36.796,32.9,36.189,32.9
			C35.584,32.9,35.094,33.392,35.094,33.997 M41.673,33.997c0,0.605,0.491,1.097,1.097,1.097s1.098-0.491,1.098-1.097
			S43.375,32.9,42.77,32.9S41.673,33.392,41.673,33.997 M21.933,25.771c0-0.907,0.737-1.644,1.646-1.644s1.645,0.736,1.645,1.644
			c0,0.909-0.736,1.646-1.645,1.646S21.933,26.681,21.933,25.771 M30.705,25.771c0-0.907,0.738-1.644,1.646-1.644
			c0.908,0,1.646,0.736,1.646,1.644c0,0.909-0.737,1.646-1.646,1.646C31.443,27.417,30.705,26.681,30.705,25.771 M17.546,29.577
			c0,2.752,1.516,5.398,3.885,7c0.124,0.084,0.747,0.371,0.706,0.779c-0.09,0.893-0.357,1.504-0.357,1.504s0.73-0.84,1.274-1.244
			c0.242-0.181,0.688-0.044,0.813,0c1.258,0.452,2.643,0.701,4.098,0.701c0.581,0,1.152-0.039,1.706-0.117
			c-0.04-0.312-0.062-0.632-0.062-0.953c0-4.336,3.771-7.935,8.713-8.617c-0.562-4.381-4.984-7.793-10.357-7.793
			C22.211,20.837,17.546,24.751,17.546,29.577 M19.693,41.855c-0.375-0.19,1.129-3.321,0.782-3.543
			c-3.108-1.985-5.123-5.174-5.123-8.77c0-6.02,5.647-10.899,12.612-10.899c6.568,0,11.963,4.339,12.557,9.879
			c5.525,0.218,9.926,4.04,9.926,8.725c0,2.909-1.697,5.485-4.308,7.072c-0.491,0.299,1.065,2.819,0.513,3.045
			c-0.171,0.068-0.871-0.438-1.57-0.942c-0.69-0.5-1.379-0.999-1.557-0.946c-1.094,0.326-2.271,0.504-3.498,0.504
			c-4.488,0-8.314-2.38-9.779-5.717c-0.741,0.118-1.504,0.178-2.283,0.178c-1.557,0-3.047-0.242-4.422-0.688
			c-0.34-0.109-1.125,0.474-1.909,1.058c-0.72,0.537-1.438,1.072-1.813,1.072C19.771,41.883,19.729,41.874,19.693,41.855
			 M5.482,32.9c0,15.143,12.275,27.417,27.416,27.417c15.143,0,27.417-12.274,27.417-27.417c0-15.142-12.274-27.417-27.417-27.417
			C17.758,5.483,5.482,17.759,5.482,32.9"/>
	</defs>
	<clipPath id="SVGID_2_">
		<use xlink:href="#SVGID_1_"  style="overflow:visible;"/>
	</clipPath>
	<rect y="0.001" style="clip-path:url(#SVGID_2_);fill-rule:evenodd;clip-rule:evenodd;fill:#8DC81B;" width="65.8" height="65.8"/>
</g>
</svg>
