<?xml version="1.0" encoding="iso-8859-1"?>
<!-- Generator: Adobe Illustrator 15.1.0, SVG Export Plug-In . SVG Version: 6.00 Build 0)  -->
<!DOCTYPE svg PUBLIC "-//W3C//DTD SVG 1.1//EN" "http://www.w3.org/Graphics/SVG/1.1/DTD/svg11.dtd">
<svg version="1.1" id="&#x56FE;&#x5C42;_1" xmlns="http://www.w3.org/2000/svg" xmlns:xlink="http://www.w3.org/1999/xlink" x="0px"
	 y="0px" width="54.431px" height="75.508px" viewBox="0 0 54.431 75.508" style="enable-background:new 0 0 54.431 75.508;"
	 xml:space="preserve">
<g>
	<linearGradient id="SVGID_1_" gradientUnits="userSpaceOnUse" x1="0" y1="37.7539" x2="54.4307" y2="37.7539">
		<stop  offset="0" style="stop-color:#FFDB3F"/>
		<stop  offset="0.5706" style="stop-color:#FFFF1B"/>
		<stop  offset="1" style="stop-color:#FFE300"/>
	</linearGradient>
	<path style="fill:url(#SVGID_1_);" d="M48.406,0h-8.674h-1.199l-1.068,0.543L4.717,17.203L0,19.603l2.664,4.573l3.186,5.47
		l2.083,3.578l3.904-1.38l13.074-4.623c-0.411,4.196-1.045,9.264-1.899,15.161c-1.39,9.251-3.039,18.372-4.898,27.083l-1.291,6.044
		h6.18h15.754h4.58l0.401-4.562c0.813-9.243,1.902-18.358,3.237-27.093c1.699-11.781,3.832-24.529,6.344-37.932L54.431,0H48.406z"/>
	<g>
		<linearGradient id="SVGID_2_" gradientUnits="userSpaceOnUse" x1="27.6953" y1="5" x2="27.6953" y2="70.5078">
			<stop  offset="0" style="stop-color:#FF173F"/>
			<stop  offset="1" style="stop-color:#B60000"/>
		</linearGradient>
		<path style="fill:url(#SVGID_2_);" d="M38.759,70.508H23.004c1.888-8.843,3.541-17.98,4.957-27.41
			c1.474-10.185,2.301-17.896,2.478-23.135L10.17,27.129l-3.186-5.47L39.732,5h8.674c-2.538,13.538-4.662,26.237-6.373,38.098
			C40.676,51.983,39.584,61.12,38.759,70.508z"/>
	</g>
</g>
</svg>
