<?xml version="1.0" encoding="utf-8"?>
<!-- Generator: Adobe Illustrator 15.1.0, SVG Export Plug-In . SVG Version: 6.00 Build 0)  -->
<!DOCTYPE svg PUBLIC "-//W3C//DTD SVG 1.1//EN" "http://www.w3.org/Graphics/SVG/1.1/DTD/svg11.dtd">
<svg version="1.1" id="图层_1" xmlns="http://www.w3.org/2000/svg" xmlns:xlink="http://www.w3.org/1999/xlink" x="0px" y="0px"
	 width="77.623px" height="75.268px" viewBox="0 0 77.623 75.268" enable-background="new 0 0 77.623 75.268" xml:space="preserve">
<linearGradient id="SVGID_1_" gradientUnits="userSpaceOnUse" x1="3.4307" y1="37.636" x2="77.623" y2="37.636">
	<stop  offset="0" style="stop-color:#FFDB3F"/>
	<stop  offset="0.5706" style="stop-color:#FFFF1B"/>
	<stop  offset="1" style="stop-color:#FFE300"/>
</linearGradient>
<path fill="url(#SVGID_1_)" d="M77.623,28.603L67.339,18.318l-7.804,7.805l-7.805-7.804l-7.178,7.178V0.402L23.318,21.637H9.127
	c-3.141,0-5.697,2.555-5.697,5.696v20.604c0,3.142,2.556,5.697,5.697,5.697h14.191l21.234,21.234V47.32l7.178,7.178l7.805-7.805
	l7.806,7.806l10.282-10.289l-7.803-7.802L77.623,28.603z M44.553,31.71l4.697,4.697l-4.697,4.697V31.71z"/>
<linearGradient id="SVGID_2_" gradientUnits="userSpaceOnUse" x1="39.6992" y1="10.0588" x2="39.6992" y2="65.2126">
	<stop  offset="0" style="stop-color:#FF173F"/>
	<stop  offset="1" style="stop-color:#B60000"/>
</linearGradient>
<path fill="url(#SVGID_2_)" d="M24.975,25.637l15.578-15.578v55.153L24.976,49.635H9.127c-0.937,0-1.697-0.759-1.697-1.697V27.333
	c0-0.938,0.76-1.696,1.697-1.696H24.975z M71.967,28.603l-4.628-4.628l-7.804,7.804l-7.805-7.804l-4.628,4.628l7.805,7.804
	l-7.805,7.805l4.628,4.628l7.805-7.805l7.805,7.805l4.627-4.63l-7.804-7.803L71.967,28.603z"/>
</svg>
