<?xml version="1.0" encoding="iso-8859-1"?>
<!-- Generator: Adobe Illustrator 15.1.0, SVG Export Plug-In . SVG Version: 6.00 Build 0)  -->
<!DOCTYPE svg PUBLIC "-//W3C//DTD SVG 1.1//EN" "http://www.w3.org/Graphics/SVG/1.1/DTD/svg11.dtd">
<svg version="1.1" id="&#x56FE;&#x5C42;_1" xmlns="http://www.w3.org/2000/svg" xmlns:xlink="http://www.w3.org/1999/xlink" x="0px"
	 y="0px" width="77.623px" height="75.268px" viewBox="0 0 77.623 75.268" style="enable-background:new 0 0 77.623 75.268;"
	 xml:space="preserve">
<g>
	<linearGradient id="SVGID_1_" gradientUnits="userSpaceOnUse" x1="0" y1="37.6343" x2="77.6226" y2="37.6343">
		<stop  offset="0" style="stop-color:#FFDB3F"/>
		<stop  offset="0.5706" style="stop-color:#FFFF1B"/>
		<stop  offset="1" style="stop-color:#FFE300"/>
	</linearGradient>
	<path style="fill:url(#SVGID_1_);" d="M62.406,2.477L59.777,0l-2.732,2.363l-5.316,4.599l-1.877,1.625l-0.005-0.004l-2.619,2.265
		l-5.361,4.638l-0.745,0.645v-6.07V0.402L34.293,7.23L19.888,21.637H5.697C2.556,21.637,0,24.192,0,27.333v20.605
		c0,3.142,2.556,5.697,5.697,5.697h14.191l14.405,14.406l6.829,6.828v-9.657v-6.039l0.725,0.625l5.372,4.63l1.086,0.937
		l-0.004,0.004l3.427,2.954l5.325,4.59l2.731,2.354l2.624-2.473c9.668-9.112,15.214-21.927,15.214-35.157
		C77.623,24.405,72.076,11.59,62.406,2.477z M41.971,53.637l-0.849,0.674V20.946l0.87,0.693c4.916,3.915,7.736,9.744,7.736,15.991
		C49.728,43.888,46.9,49.722,41.971,53.637z"/>
	<g>
		<linearGradient id="SVGID_2_" gradientUnits="userSpaceOnUse" x1="52.5928" y1="13.8726" x2="52.5928" y2="61.3999">
			<stop  offset="0" style="stop-color:#FF173F"/>
			<stop  offset="1" style="stop-color:#B60000"/>
		</linearGradient>
		<path style="fill:url(#SVGID_2_);" d="M49.845,13.873l-5.361,4.638c5.627,4.481,9.244,11.384,9.244,19.12
			c0,7.748-3.628,14.659-9.27,19.14l5.372,4.63c6.667-5.769,10.898-14.282,10.898-23.77C60.728,28.149,56.504,19.642,49.845,13.873z
			"/>
		<linearGradient id="SVGID_3_" gradientUnits="userSpaceOnUse" x1="63.9814" y1="5.3882" x2="63.9814" y2="69.8843">
			<stop  offset="0" style="stop-color:#FF173F"/>
			<stop  offset="1" style="stop-color:#B60000"/>
		</linearGradient>
		<path style="fill:url(#SVGID_3_);" d="M59.663,5.388l-5.316,4.599c7.536,6.835,12.276,16.7,12.276,27.651
			c0,10.955-4.743,20.821-12.283,27.657l5.325,4.59c8.583-8.09,13.958-19.549,13.958-32.247
			C73.623,24.938,68.248,13.478,59.663,5.388z"/>
		<linearGradient id="SVGID_4_" gradientUnits="userSpaceOnUse" x1="20.561" y1="10.0591" x2="20.561" y2="65.2134">
			<stop  offset="0" style="stop-color:#FF173F"/>
			<stop  offset="1" style="stop-color:#B60000"/>
		</linearGradient>
		<path style="fill:url(#SVGID_4_);" d="M5.697,25.637C4.76,25.637,4,26.396,4,27.333v20.605c0,0.938,0.76,1.697,1.697,1.697h15.848
			l15.577,15.577V10.059L21.544,25.637H5.697z"/>
	</g>
</g>
</svg>
