<?xml version="1.0" encoding="iso-8859-1"?>
<!-- Generator: Adobe Illustrator 15.1.0, SVG Export Plug-In . SVG Version: 6.00 Build 0)  -->
<!DOCTYPE svg PUBLIC "-//W3C//DTD SVG 1.1//EN" "http://www.w3.org/Graphics/SVG/1.1/DTD/svg11.dtd">
<svg version="1.1" id="&#x56FE;&#x5C42;_1" xmlns="http://www.w3.org/2000/svg" xmlns:xlink="http://www.w3.org/1999/xlink" x="0px"
	 y="0px" width="226.666px" height="82.666px" viewBox="0 0 226.666 82.666" style="enable-background:new 0 0 226.666 82.666;"
	 xml:space="preserve">
<g>
	<linearGradient id="SVGID_1_" gradientUnits="userSpaceOnUse" x1="113.333" y1="1.5" x2="113.333" y2="81.166">
		<stop  offset="0" style="stop-color:#FF0000"/>
		<stop  offset="1" style="stop-color:#8B0000"/>
	</linearGradient>
	<path style="fill:url(#SVGID_1_);" d="M41.333,81.166C19.369,81.166,1.5,63.297,1.5,41.333S19.369,1.5,41.333,1.5h144
		c21.964,0,39.833,17.869,39.833,39.833s-17.869,39.833-39.833,39.833H41.333z"/>
	<path style="fill:#FFFF00;" d="M185.333,3c21.171,0,38.333,17.162,38.333,38.333s-17.162,38.333-38.333,38.333h-144
		C20.162,79.666,3,62.504,3,41.333S20.162,3,41.333,3H185.333 M185.333,0h-144C18.542,0,0,18.542,0,41.333
		s18.542,41.333,41.333,41.333h144c22.791,0,41.333-18.542,41.333-41.333S208.124,0,185.333,0L185.333,0z"/>
</g>
<g>
	<path style="fill:#FFFF00;" d="M50.179,53.155c3.638-1.73,6.927-3.728,9.866-5.992c-1.057-3.372-1.743-7.455-2.062-12.252h-9.942
		v6.316c2.52-0.445,5.127-0.922,7.824-1.432c0.051,1.146,0.089,2.15,0.114,3.016c-2.671,0.509-5.317,1.018-7.938,1.526v8.97
		c0,2.9-1.387,4.363-4.16,4.39c-1.705,0.024-3.41-0.014-5.114-0.115c-0.128-1.145-0.344-2.227-0.649-3.244
		c1.857,0.255,3.524,0.382,5,0.382c1.196,0.025,1.794-0.585,1.794-1.832v-7.938c-2.519,0.496-5.013,0.992-7.48,1.488l-0.764-3.282
		c2.634-0.42,5.382-0.878,8.244-1.374v-6.87h-8.206v-2.824h8.206v-5.764c-2.01,0.268-4.173,0.534-6.488,0.802
		c-0.179-0.967-0.458-1.984-0.84-3.054c6.26-0.585,11.642-1.349,16.145-2.29l0.916,3.054c-1.921,0.344-4.122,0.699-6.603,1.068
		v6.184h9.771c-0.178-3.117-0.369-6.883-0.572-11.298h3.206c0.089,4.071,0.223,7.837,0.4,11.298h13.95v2.824H61.018
		c0.293,3.931,0.814,7.315,1.565,10.152c2.812-2.493,5.241-5.268,7.29-8.32l2.748,1.832c-2.659,3.601-5.662,6.8-9.008,9.599
		c0.712,1.807,1.564,3.289,2.558,4.446c1.297,1.527,2.43,2.29,3.396,2.29c0.534,0,0.916-0.419,1.145-1.259
		c0.356-1.323,0.726-3.474,1.107-6.45c1.068,0.483,2.048,0.853,2.938,1.106c-0.458,2.85-0.916,5.063-1.374,6.642
		c-0.585,2.035-1.832,3.065-3.74,3.091c-2.188-0.025-4.262-1.336-6.221-3.931c-0.865-1.133-1.629-2.462-2.29-3.988
		c-2.786,2.061-5.789,3.873-9.008,5.438C51.463,54.567,50.814,53.766,50.179,53.155z M63.499,24.186l1.984-2.022
		c2.239,1.705,4.529,3.601,6.87,5.687l-2.328,2.367C67.938,28.104,65.763,26.095,63.499,24.186z"/>
	<path style="fill:#FFFF00;" d="M76.328,37.659h7.824c0.152-2.341,0.241-5.293,0.267-8.854h-3.244
		c-0.764,2.162-1.552,4.097-2.366,5.801c-1.146-0.483-2.112-0.865-2.9-1.145c1.984-3.791,3.562-8.117,4.732-12.978l2.977,0.688
		c-0.483,1.73-0.979,3.358-1.488,4.886h11.642v2.748h-6.298c-0.025,3.511-0.103,6.463-0.229,8.854h7.29v2.748h-7.519
		c-0.076,0.661-0.152,1.285-0.229,1.87c3.231,3.664,5.992,6.959,8.282,9.885l-2.595,1.947c-2.443-3.257-4.618-6.005-6.526-8.244
		c-1.451,4.885-4.161,8.994-8.13,12.328c-0.662-0.891-1.374-1.769-2.138-2.634c4.783-3.867,7.531-8.918,8.244-15.152h-7.595V37.659z
		 M96.099,24.759h16.259v32.519h-3.015v-3.855H99.113v3.855h-3.015V24.759z M109.343,27.583H99.113v23.091h10.229V27.583z"/>
	<path style="fill:#FFFF00;" d="M131.18,54.491l9.236,0.114l12.938-0.306c-0.432,0.992-0.852,1.972-1.26,2.939l-12.709,0.114
		l-8.473-0.153c-4.275-0.025-7.443-1.488-9.505-4.389c-0.738,0.585-2.227,2.214-4.466,4.886l-1.641-3.245
		c1.653-1.476,3.257-2.881,4.81-4.217V36.972h-4.428v-2.786h7.329v16.698C124.855,53.174,127.578,54.376,131.18,54.491z
		 M119.04,21.477c1.756,2.035,3.487,4.249,5.192,6.641l-2.673,1.832c-1.705-2.646-3.32-4.911-4.847-6.794L119.04,21.477z
		 M128.277,31.361h7.863l0.744-3.32h-10.781v-2.52h7.174c-0.598-0.852-1.525-2.035-2.785-3.549l2.213-1.642
		c1.324,1.425,2.455,2.723,3.398,3.894l-1.738,1.297h7.023c1.107-1.526,2.221-3.218,3.34-5.076l2.9,1.489
		c-0.814,1.043-1.787,2.239-2.92,3.587h8.111v2.52h-12.844l-0.973,3.32h11.029v20.801h-2.824V50.75h-16.105v1.412h-2.826V31.361z
		 M147.209,33.689h-16.105v3.397h16.105V33.689z M131.104,42.735h16.105v-3.397h-16.105V42.735z M131.104,48.422h16.105v-3.435
		h-16.105V48.422z"/>
	<path style="fill:#FFFF00;" d="M172.595,34.835c4.352-2.672,8.397-5.407,12.138-8.206h-28.664v-3.168h33.931v3.778
		c-4.555,3.13-9.211,6.184-13.969,9.16v14.046c0,2.519-0.483,4.262-1.45,5.229c-0.941,1.018-2.685,1.539-5.229,1.565
		c-1.399,0-3.473-0.039-6.221-0.115c-0.153-1.272-0.356-2.506-0.611-3.702c2.545,0.28,4.733,0.433,6.565,0.458
		c2.341,0.025,3.511-1.132,3.511-3.473V34.835z"/>
</g>
</svg>
