<?xml version="1.0" encoding="iso-8859-1"?>
<!-- Generator: Adobe Illustrator 15.1.0, SVG Export Plug-In . SVG Version: 6.00 Build 0)  -->
<!DOCTYPE svg PUBLIC "-//W3C//DTD SVG 1.1//EN" "http://www.w3.org/Graphics/SVG/1.1/DTD/svg11.dtd">
<svg version="1.1" id="&#x56FE;&#x5C42;_1" xmlns="http://www.w3.org/2000/svg" xmlns:xlink="http://www.w3.org/1999/xlink" x="0px"
	 y="0px" width="226.666px" height="82.666px" viewBox="0 0 226.666 82.666" style="enable-background:new 0 0 226.666 82.666;"
	 xml:space="preserve">
<g>
	<linearGradient id="SVGID_1_" gradientUnits="userSpaceOnUse" x1="113.333" y1="1.5" x2="113.333" y2="81.166">
		<stop  offset="0" style="stop-color:#FFFF65"/>
		<stop  offset="1" style="stop-color:#FFC500"/>
	</linearGradient>
	<path style="fill:url(#SVGID_1_);" d="M41.333,81.166C19.369,81.166,1.5,63.297,1.5,41.333S19.369,1.5,41.333,1.5h144
		c21.964,0,39.833,17.869,39.833,39.833s-17.869,39.833-39.833,39.833H41.333z"/>
	<path style="fill:#FFA000;" d="M185.333,3c21.171,0,38.333,17.162,38.333,38.333s-17.162,38.333-38.333,38.333h-144
		C20.162,79.666,3,62.504,3,41.333S20.162,3,41.333,3H185.333 M185.333,0h-144C18.542,0,0,18.542,0,41.333
		s18.542,41.333,41.333,41.333h144c22.791,0,41.333-18.542,41.333-41.333S208.124,0,185.333,0L185.333,0z"/>
</g>
<g>
	<path style="fill:#C80000;" d="M35.503,38.461c3.918-5.293,6.959-11.272,9.122-17.939l2.786,0.993
		c-1.26,3.511-2.646,6.755-4.16,9.732v26.908h-2.748V36.133c-1.247,1.997-2.557,3.842-3.931,5.534
		C36.266,40.648,35.91,39.58,35.503,38.461z M49.167,23.728c7.302,0,14.872-0.534,22.709-1.603l1.068,2.862
		c-3.511,0.331-6.915,0.604-10.209,0.82c0.063,3.562,0.184,6.813,0.362,9.752h10.343v2.748H63.308
		c0.75,8.843,2.767,14.122,6.05,15.84c0.712,0.305,1.17,0.038,1.374-0.802c0.229-1.298,0.445-3.206,0.648-5.725
		c0.993,0.458,1.909,0.801,2.748,1.03c-0.254,2.392-0.534,4.363-0.839,5.916c-0.433,1.984-1.425,2.977-2.977,2.977
		c-1.883,0-3.677-1.119-5.382-3.358c-2.43-3.346-3.925-8.639-4.484-15.878h-8.378v13.512c2.748-1.578,5.115-2.939,7.099-4.084
		c0.153,1.171,0.344,2.15,0.573,2.938c-3.257,1.857-5.827,3.384-7.71,4.58c-0.738,0.483-1.463,1.056-2.175,1.718l-1.985-2.52
		c0.865-0.737,1.298-1.832,1.298-3.282V23.728z M59.796,25.979c-2.646,0.153-5.223,0.268-7.729,0.344v9.236h8.206
		C60.133,33.079,59.975,29.886,59.796,25.979z M56.838,53.804l1.985-1.564c1.425,1.348,2.824,2.786,4.198,4.312l-2.214,1.794
		C59.612,56.845,58.289,55.33,56.838,53.804z"/>
	<path style="fill:#C80000;" d="M86.423,44.147c0.051,1.145,0.14,2.252,0.268,3.32c-2.646,1.935-4.938,3.754-6.871,5.458
		l-1.756-2.48c0.84-0.916,1.26-2.062,1.26-3.436V35.369h-4.16v-2.672h6.947v14.847C83.458,46.552,84.896,45.42,86.423,44.147z
		 M79.819,21.361c1.705,1.68,3.613,3.677,5.726,5.992l-2.519,2.138c-1.985-2.519-3.779-4.618-5.383-6.298L79.819,21.361z
		 M90.431,25.56v15.688c0,7.455-2.023,13.116-6.068,16.984c-0.637-0.916-1.299-1.73-1.985-2.443
		c3.511-3.358,5.267-8.104,5.267-14.236V22.965h23.512v30.533c0,2.825-1.298,4.237-3.893,4.237c-1.502,0-3.512-0.038-6.031-0.115
		c-0.127-0.941-0.318-1.921-0.572-2.938c2.697,0.178,4.631,0.268,5.801,0.268c1.272,0,1.908-0.675,1.908-2.023V25.56H90.431z
		 M91.613,36.056h6.412v-3.511h-5.343v-2.443h5.343v-3.626h2.748v3.626h5.267v2.443h-5.267v3.511h6.412v2.443H91.613V36.056z
		 M93.369,41.59h11.679v9.733h-9.007v1.755h-2.672V41.59z M102.376,44.033h-6.335v4.847h6.335V44.033z"/>
	<path style="fill:#C80000;" d="M114.365,29.071l2.443-0.84c0.84,2.57,1.666,5.293,2.48,8.168l-2.633,0.84
		C116.045,34.542,115.281,31.819,114.365,29.071z M120.625,21.057h2.824c0,9.439-0.164,16.425-0.496,20.953
		c2.57,2.748,4.898,5.331,6.984,7.748l-2.289,1.985c-1.578-2.087-3.295-4.237-5.152-6.451c-1.02,5.522-2.99,9.886-5.916,13.092
		c-0.535-0.789-1.185-1.616-1.948-2.48c3.411-3.894,5.331-9.669,5.765-17.328C120.549,35.675,120.625,29.835,120.625,21.057z
		 M129.328,29.567c-0.916,2.748-1.781,5.204-2.596,7.366l-2.52-0.954c0.967-2.442,1.82-4.847,2.557-7.214L129.328,29.567z
		 M132.953,39.605c2.367-0.076,5.051-0.165,8.053-0.268c1.654-2.264,3.27-4.554,4.848-6.869l2.977,1.45
		c-5.699,7.685-10.801,14.16-15.305,19.427c4.326-0.152,8.729-0.356,13.207-0.61c-1.121-2.469-2.277-4.848-3.475-7.138l2.596-1.26
		c2.316,4.453,4.377,8.69,6.184,12.71l-2.863,1.336c-0.432-1.068-0.877-2.125-1.336-3.168c-9.287,0.458-15.279,0.916-17.977,1.374
		l-0.877-3.015c1.398-0.967,2.646-2.125,3.74-3.474c2.188-2.697,4.312-5.433,6.373-8.206c-3.943,0.152-6.971,0.356-9.084,0.61
		l-0.762-2.748c2.34-2.646,4.656-6.233,6.945-10.763h-7.404v-2.748h10.877c-0.762-1.323-1.678-2.773-2.748-4.352l2.406-1.45
		c0.941,1.247,2.061,2.876,3.357,4.886l-1.604,0.916h10.84v2.748h-12.137C137.037,33.423,134.76,36.96,132.953,39.605z"/>
	<path style="fill:#C80000;" d="M153.874,36.285h5.954V20.827h2.519v15.458h5.878v2.442h-3.358v12.9
		c0.916-0.585,2.29-1.514,4.122-2.786c0.178,0.941,0.355,1.819,0.534,2.634c-1.654,1.018-3.193,2.035-4.618,3.054
		c-0.637,0.483-1.196,0.967-1.68,1.45l-1.756-2.138c0.688-0.534,1.03-1.526,1.03-2.977V38.728h-2.9
		c0.038,8.436-1.361,14.897-4.198,19.389c-0.688-1.018-1.285-1.832-1.794-2.442c2.43-3.575,3.639-9.224,3.626-16.946h-3.358V36.285z
		 M153.836,25.407l2.137-0.802c0.992,2.748,1.908,5.522,2.748,8.321l-2.366,0.877C155.616,31.006,154.777,28.206,153.836,25.407z
		 M163.225,32.85c1.146-2.62,2.087-5.343,2.824-8.167l2.366,0.763c-0.891,2.697-1.87,5.458-2.938,8.282L163.225,32.85z
		 M178.949,35.407l2.1-1.184c0.75,1.031,1.495,2.087,2.232,3.168h7.386v2.176h-8.244v3.435h7.404v2.138h-7.404v3.436h7.404v2.137
		h-7.404v3.474h8.74v2.176h-18.13v1.755h-2.442V42.315c-0.827,0.941-1.629,1.794-2.404,2.558c-0.688-0.662-1.311-1.247-1.87-1.756
		c2.85-2.596,5.292-5.572,7.328-8.932l2.176,1.222c-0.472,0.687-0.936,1.349-1.394,1.984h5.858
		C179.853,36.718,179.407,36.056,178.949,35.407z M167.995,31.896c2.952-0.56,5.649-1.119,8.092-1.679v-5.496h-7.71v-2.214h10
		v11.946h-2.29v-2.138c-2.379,0.534-4.911,1.171-7.595,1.908L167.995,31.896z M169.522,26.476l1.526-1.297
		c1.119,1.018,2.29,2.137,3.512,3.358l-1.642,1.45C171.8,28.689,170.667,27.52,169.522,26.476z M173.033,43.002h6.947v-3.435h-6.947
		V43.002z M173.033,48.575h6.947V45.14h-6.947V48.575z M173.033,54.186h6.947v-3.474h-6.947V54.186z M179.103,31.209
		c2.658-0.483,5.317-1.024,7.977-1.622v-4.904h-7.176v-2.214h9.466v12.786h-2.29v-3.588c-2.888,0.661-5.382,1.285-7.48,1.87
		L179.103,31.209z M179.637,26.399l1.564-1.259c1.349,1.221,2.52,2.341,3.512,3.358l-1.68,1.412
		C181.939,28.664,180.807,27.494,179.637,26.399z"/>
</g>
</svg>
