<?xml version="1.0" encoding="iso-8859-1"?>
<!-- Generator: Adobe Illustrator 15.1.0, SVG Export Plug-In . SVG Version: 6.00 Build 0)  -->
<!DOCTYPE svg PUBLIC "-//W3C//DTD SVG 1.1//EN" "http://www.w3.org/Graphics/SVG/1.1/DTD/svg11.dtd">
<svg version="1.1" id="&#x56FE;&#x5C42;_1" xmlns="http://www.w3.org/2000/svg" xmlns:xlink="http://www.w3.org/1999/xlink" x="0px"
	 y="0px" width="77.559px" height="75.692px" viewBox="0 0 77.559 75.692" style="enable-background:new 0 0 77.559 75.692;"
	 xml:space="preserve">
<linearGradient id="SVGID_1_" gradientUnits="userSpaceOnUse" x1="3.0586" y1="78.75" x2="70.7192" y2="11.0894">
	<stop  offset="0" style="stop-color:#FFDB3F"/>
	<stop  offset="0.5706" style="stop-color:#FFFF1B"/>
	<stop  offset="1" style="stop-color:#FFE300"/>
</linearGradient>
<path style="fill:url(#SVGID_1_);" d="M70.201,56.098l-0.735,0.024c-7.651,0.246-15.409,0.431-23.214,0.552
	c2.821-1.596,5.387-3.145,7.688-4.642c7.347-4.777,12.665-9.544,15.803-14.167c3.356-4.941,5.059-10.165,5.059-15.523
	c0-4.303-1.685-10.609-9.713-16.214C59.178,2.004,49.805,0,36.432,0c-7.22,0-13.185,0.442-17.729,1.314l-0.287,0.055l-2.841,0.547
	l-0.942,2.735l-3.253,9.447l-2.484,7.213l7.605-0.601l0.76-0.06c7.017-0.553,12.401-0.834,16.002-0.834
	c5.906,0,15.814,0.731,15.814,5.626c0,5.907-4.506,11.566-13.392,16.82C25.298,48.405,16.249,52.892,8.791,55.597l-0.237,0.086
	l-2.284,0.833l-0.756,2.311L2.143,69.138L0,75.692h6.896h60.019h3.516l1.189-3.309l3.449-9.596l2.49-6.928L70.201,56.098z"/>
<linearGradient id="SVGID_2_" gradientUnits="userSpaceOnUse" x1="38.6294" y1="5" x2="38.6294" y2="70.6919">
	<stop  offset="0" style="stop-color:#FF173F"/>
	<stop  offset="1" style="stop-color:#B60000"/>
</linearGradient>
<path style="fill:url(#SVGID_2_);" d="M69.628,61.12c-14.622,0.47-29.607,0.715-44.562,0.729
	c10.811-5.041,19.604-9.751,26.146-14.007c6.787-4.414,11.63-8.715,14.394-12.785c2.784-4.098,4.195-8.376,4.195-12.714
	c0-4.529-2.549-8.605-7.575-12.114C57.255,6.759,48.576,5,36.432,5c-6.905,0-12.553,0.412-16.786,1.225l-0.284,0.055l-3.253,9.446
	l0.76-0.06c7.15-0.564,12.667-0.85,16.396-0.85c13.812,0,20.814,3.575,20.814,10.626c0,7.799-5.332,14.906-15.847,21.124
	c-10.656,6.3-19.988,10.92-27.736,13.731l-0.229,0.083L6.896,70.692h60.019l3.449-9.596L69.628,61.12z"/>
</svg>
