<?xml version="1.0" encoding="iso-8859-1"?>
<!-- Generator: Adobe Illustrator 15.1.0, SVG Export Plug-In . SVG Version: 6.00 Build 0)  -->
<!DOCTYPE svg PUBLIC "-//W3C//DTD SVG 1.1//EN" "http://www.w3.org/Graphics/SVG/1.1/DTD/svg11.dtd">
<svg version="1.1" id="&#x56FE;&#x5C42;_1" xmlns="http://www.w3.org/2000/svg" xmlns:xlink="http://www.w3.org/1999/xlink" x="0px"
	 y="0px" width="68.876px" height="82.149px" viewBox="0 0 68.876 82.149" style="enable-background:new 0 0 68.876 82.149;"
	 xml:space="preserve">
<linearGradient id="SVGID_1_" gradientUnits="userSpaceOnUse" x1="34.4385" y1="82.1494" x2="34.4385" y2="8.526513e-14">
	<stop  offset="0" style="stop-color:#FFDB3F"/>
	<stop  offset="0.5706" style="stop-color:#FFFF1B"/>
	<stop  offset="1" style="stop-color:#FFE300"/>
</linearGradient>
<path style="fill:url(#SVGID_1_);" d="M61.841,33.811c-0.515-0.463-1.055-0.906-1.621-1.327c6.92-4.607,8.656-10.234,8.656-14.715
	c0-3.759-1.387-9.137-7.996-13.411C56.343,1.425,49.814,0,40.919,0c-7.927,0-14.717,0.462-20.183,1.374l-0.618,0.104l-3.083,0.515
	L16.148,4.99l-2.582,8.723l-2.251,7.606l7.833-1.25l1.567-0.25c3.668-0.585,7.973-0.882,12.795-0.882
	c8.926,0,11.818,1.385,12.578,1.894c-0.333,0.587-1.769,1.726-5.209,2.779c-5.752,1.762-11.79,2.655-17.943,2.655h-0.693h-3.466
	l-1.216,3.246l-2.972,7.933l-2.53,6.754h7.212h1.442c8.816,0,15.411,0.789,19.603,2.344c2.586,0.96,3.898,2.048,3.898,3.233
	c0,3.919-5.337,6.744-9.814,8.424c-8.562,3.212-17.942,5.222-27.879,5.974l-1.086,0.082L0,64.664l0.876,5.379l1.26,7.738
	l0.711,4.368l4.422-0.176l0.884-0.035c14.374-0.567,27.702-3.323,39.614-8.191c17.112-6.994,20.704-17.651,20.704-25.36
	C68.472,42.76,66.179,37.72,61.841,33.811z"/>
<linearGradient id="SVGID_2_" gradientUnits="userSpaceOnUse" x1="34.8438" y1="5" x2="34.8437" y2="76.9775">
	<stop  offset="0" style="stop-color:#FF173F"/>
	<stop  offset="1" style="stop-color:#B60000"/>
</linearGradient>
<path style="fill:url(#SVGID_2_);" d="M58.494,37.526c-2.604-2.346-6.093-4.031-10.399-5.027
	c10.475-3.175,15.781-8.122,15.781-14.729c0-3.662-1.921-6.761-5.711-9.212C54.514,6.197,48.711,5,40.919,5
	c-7.653,0-14.167,0.439-19.36,1.306l-0.617,0.103l-2.582,8.723l1.567-0.25c3.927-0.626,8.497-0.944,13.583-0.944
	c11.716,0,17.657,2.239,17.657,6.655c0,3.382-2.969,6.006-8.823,7.799c-6.228,1.907-12.758,2.874-19.408,2.874h-0.693l-2.972,7.933
	h1.442c18.912,0,28.5,3.559,28.5,10.577c0,5.445-4.393,9.854-13.058,13.105c-9.006,3.379-18.85,5.491-29.258,6.278L5.811,69.24
	l1.26,7.738l0.884-0.035c13.792-0.544,26.551-3.177,37.922-7.823c11.675-4.772,17.595-11.747,17.595-20.732
	C63.472,44.156,61.797,40.502,58.494,37.526z"/>
</svg>
