<?xml version="1.0" encoding="iso-8859-1"?>
<!-- Generator: Adobe Illustrator 15.1.0, SVG Export Plug-In . SVG Version: 6.00 Build 0)  -->
<!DOCTYPE svg PUBLIC "-//W3C//DTD SVG 1.1//EN" "http://www.w3.org/Graphics/SVG/1.1/DTD/svg11.dtd">
<svg version="1.1" id="&#x56FE;&#x5C42;_1" xmlns="http://www.w3.org/2000/svg" xmlns:xlink="http://www.w3.org/1999/xlink" x="0px"
	 y="0px" width="207.973px" height="49.438px" viewBox="0 0 207.973 49.438" style="enable-background:new 0 0 207.973 49.438;"
	 xml:space="preserve">
<g>
	<linearGradient id="SVGID_1_" gradientUnits="userSpaceOnUse" x1="103.9868" y1="49.4385" x2="103.9868" y2="4.973799e-14">
		<stop  offset="0" style="stop-color:#FFDB3F"/>
		<stop  offset="0.5706" style="stop-color:#FFFF1B"/>
		<stop  offset="1" style="stop-color:#FFE300"/>
	</linearGradient>
	<path style="fill:url(#SVGID_1_);" d="M204.206,7.692c-3.599-4.58-8.848-6.898-15.605-6.898h-15.239h-0.543h-3.116h-1.293h-11.681
		h-3.116l-0.709,3.034l-0.835,3.574l-0.95,4.065l-4.08-8.452l-1.072-2.221h-2.466h-9.822h-0.544h-3.116h-1.293h-10.832h-1.004
		h-4.953H93.6h-3.116l-0.709,3.034l-0.835,3.574l-0.937,4.006c-0.395-1.136-0.871-2.233-1.468-3.265C83.519,2.826,78.396,0,71.739,0
		C65.448,0,59.722,2.452,54.72,7.287c-2.094,2-3.869,4.262-5.349,6.743c0.232-4.038-1.5-7.525-5.026-9.979
		C41.17,1.883,37.06,0.794,32.098,0.794H14.305h-3.116L10.48,3.828L9.645,7.402l-1.127,4.823h3.094L6.172,35.482
		c-0.227,0.969-0.471,1.457-0.607,1.674H2.689L1.977,40.19l-0.849,3.631L0,48.644h4.954H22.05h3.116l0.71-3.033l0.072-0.311
		c0.784,1.1,1.643,1.97,2.591,2.634l1.015,0.71h1.238h9.438h3.116l0.709-3.034l0.862-3.687l0.761-3.254
		c0.399,1.097,0.874,2.153,1.47,3.141c2.041,3.461,6.297,7.628,14.867,7.628c6.427,0,12.107-2.29,16.881-6.804
		c3.847-3.591,6.664-8.107,8.424-13.423l-0.471,2.016c-1.859,7.95,0.979,12.314,3.688,14.575c2.858,2.409,6.932,3.636,12.092,3.636
		c4.83,0,9.119-1.395,12.749-4.145c2.436-1.849,4.386-4.187,5.861-6.962l-0.448,1.916l-0.836,3.574l-1.128,4.823h4.954h12.455h3.116
		l0.709-3.033l0.836-3.574l1.128-4.823h-3.994c0.073-0.388,0.17-0.857,0.301-1.417l1.16-4.96l7.971,16.34l1.076,2.206h2.455h5.493
		h3.463l0.093-0.737h3.423h14.312c6.914,0,13.098-1.976,18.38-5.873c5.628-4.194,9.333-9.992,11.029-17.243
		C208.861,18.367,207.859,12.366,204.206,7.692z M63.875,34.58c0.045-3.242,0.535-6.872,1.456-10.809
		c0.808-3.454,1.865-6.475,3.143-8.981c0.728-1.405,1.337-2.226,1.774-2.699c0.038,0.284,0.068,0.632,0.083,1.056l0.001,0.028
		l0.001,0.028c0.118,2.343-0.235,5.296-1.049,8.779c-0.928,3.968-2.15,7.635-3.632,10.899c-0.682,1.519-1.274,2.585-1.757,3.329
		C63.872,35.754,63.862,35.215,63.875,34.58z M42.649,37.1c-0.33-0.693-0.836-1.953-1.498-4.171L39.393,27.1
		c2.641-1.257,4.765-2.775,6.369-4.541c-0.14,0.504-0.288,1.003-0.409,1.52c-1.143,4.886-1.178,9.235-0.165,13.02H42.649z
		 M183.286,35.108l5.085-21.747c0.068,0.154,0.113,0.309,0.156,0.457c0.296,1.062,0.593,3.846-0.881,10.148
		c-1.036,4.434-2.363,7.968-3.943,10.502C183.56,34.7,183.421,34.912,183.286,35.108z M154.498,12.225l-0.984,4.208l-2.031-4.208
		H154.498z M112.103,12.225h3.095l-3.794,16.223c-1.757,7.518-4.536,7.518-5.449,7.518c-0.32,0-0.545-0.024-0.694-0.051
		c-0.066-0.47-0.117-1.768,0.545-4.599l4.086-17.472c0.378-1.618,0.762-1.618,1.207-1.618H112.103z M88.878,22.551
		c0.515-3.782,0.321-7.237-0.601-10.326h3.016L88.878,22.551z M121.792,37.213c0.755-1.623,1.372-3.374,1.816-5.274l4.232-18.096
		c0.174-0.748,0.32-1.267,0.431-1.618h2.709l-5.095,21.782c-0.439,1.88-0.749,2.789-0.909,3.189
		c-0.09,0.009-0.209,0.017-0.361,0.017H121.792z M161.657,37.213c0.133-0.735,0.26-1.364,0.378-1.871l5.107-21.84
		c0.177-0.757,0.371-1.125,0.47-1.277h2.124l-5.438,23.257c-0.187,0.801-0.338,1.356-0.451,1.731H161.657z"/>
	<g>
		<g>
			<linearGradient id="SVGID_2_" gradientUnits="userSpaceOnUse" x1="25.2139" y1="4.7227" x2="25.2139" y2="44.7158">
				<stop  offset="0" style="stop-color:#FF173F"/>
				<stop  offset="1" style="stop-color:#B60000"/>
			</linearGradient>
			<path style="fill:url(#SVGID_2_);" d="M40.23,44.716h-9.438c-1.728-1.21-3.211-3.915-4.446-8.112l-2.763-9.36h-0.541
				l-2.136,9.133c-0.734,3.14-0.07,4.708,1.993,4.708l-0.849,3.631H4.954l0.849-3.631c2.062,0,3.46-1.569,4.195-4.708l5.465-23.372
				c0.734-3.138,0.069-4.708-1.993-4.708l0.835-3.574h17.793c4.178,0,7.511,0.851,10.002,2.553c2.882,2.005,3.917,4.747,3.104,8.226
				c-0.964,4.122-4.501,7.224-10.607,9.303l2.789,9.247c1.388,4.651,2.623,6.977,3.706,6.977L40.23,44.716z M33.249,16.012
				c1.203-5.143-0.723-7.715-5.777-7.715L23.89,23.613c2.476,0,4.595-0.795,6.359-2.383C31.754,19.869,32.753,18.13,33.249,16.012z"
				/>
		</g>
		<g>
			<linearGradient id="SVGID_3_" gradientUnits="userSpaceOnUse" x1="66.8115" y1="3.9287" x2="66.8115" y2="45.5098">
				<stop  offset="0" style="stop-color:#FF173F"/>
				<stop  offset="1" style="stop-color:#B60000"/>
			</linearGradient>
			<path style="fill:url(#SVGID_3_);" d="M84.455,24.975c-1.415,6.051-4.168,10.986-8.258,14.806
				c-4.04,3.82-8.767,5.729-14.182,5.729c-5.416,0-9.25-1.91-11.503-5.729c-2.305-3.819-2.749-8.754-1.333-14.806
				C50.576,19,53.332,14.045,57.45,10.111c4.264-4.121,9.028-6.183,14.289-6.183s9.058,2.062,11.396,6.183
				C85.412,14.045,85.853,19,84.455,24.975z M73.11,22.875c0.902-3.857,1.285-7.148,1.147-9.871
				c-0.131-3.63-1.254-5.446-3.368-5.446c-2.063,0-4.035,1.815-5.915,5.446c-1.428,2.799-2.584,6.089-3.469,9.871
				c-0.991,4.236-1.51,8.112-1.559,11.629c-0.092,4.803,0.894,7.205,2.958,7.205c2.062,0,4.17-2.401,6.326-7.205
				C70.826,30.988,72.119,27.111,73.11,22.875z"/>
		</g>
		<g>
			<linearGradient id="SVGID_4_" gradientUnits="userSpaceOnUse" x1="109.4492" y1="4.7227" x2="109.4492" y2="45.5098">
				<stop  offset="0" style="stop-color:#FF173F"/>
				<stop  offset="1" style="stop-color:#B60000"/>
			</linearGradient>
			<path style="fill:url(#SVGID_4_);" d="M127.888,8.296c-1.238,0-2.127,0.379-2.665,1.135c-0.383,0.53-0.784,1.701-1.208,3.517
				l-4.232,18.096c-1.132,4.841-3.391,8.547-6.778,11.118c-2.946,2.232-6.404,3.347-10.376,3.347c-4.229,0-7.42-0.908-9.575-2.723
				c-2.718-2.27-3.512-5.824-2.38-10.665l4.484-19.173c0.725-3.101-0.073-4.652-2.394-4.652L93.6,4.723h18.334l-0.835,3.574
				c-2.63,0-4.308,1.551-5.033,4.652L101.98,30.42c-0.752,3.214-0.883,5.541-0.395,6.977c0.54,1.665,1.996,2.496,4.369,2.496
				c4.537,0,7.63-3.517,9.275-10.551l3.834-16.394c0.424-1.816,0.531-3.044,0.32-3.688c-0.211-0.643-0.987-0.964-2.328-0.964
				l0.835-3.574h10.832L127.888,8.296z"/>
		</g>
		<g>
			<linearGradient id="SVGID_5_" gradientUnits="userSpaceOnUse" x1="146.0947" y1="4.7227" x2="146.0947" y2="45.4526">
				<stop  offset="0" style="stop-color:#FF173F"/>
				<stop  offset="1" style="stop-color:#B60000"/>
			</linearGradient>
			<path style="fill:url(#SVGID_5_);" d="M167.573,8.296c-2.166,0-3.585,1.438-4.257,4.312l-5.107,21.84
				c-0.478,2.042-1.054,5.711-1.723,11.005h-5.493l-12.812-26.265l-3.675,15.714c-0.574,2.458-0.744,4.066-0.508,4.822
				c0.294,0.946,1.318,1.418,3.073,1.418l-0.836,3.574H123.78l0.835-3.574c1.702,0,2.878-0.511,3.53-1.532
				c0.468-0.681,0.991-2.25,1.565-4.708l5.545-23.712c-0.437-1.664-1.424-2.628-2.959-2.894l0.835-3.574h10.366l11.309,23.428
				l3.635-15.543c0.335-1.437,0.412-2.42,0.225-2.95c-0.252-0.908-1.178-1.362-2.775-1.362l0.835-3.574h11.681L167.573,8.296z"/>
		</g>
		<g>
			<linearGradient id="SVGID_6_" gradientUnits="userSpaceOnUse" x1="183.7549" y1="4.7227" x2="183.7549" y2="44.7158">
				<stop  offset="0" style="stop-color:#FF173F"/>
				<stop  offset="1" style="stop-color:#B60000"/>
			</linearGradient>
			<path style="fill:url(#SVGID_6_);" d="M203.361,24.634c-1.486,6.354-4.664,11.345-9.536,14.976
				c-4.613,3.403-9.962,5.105-16.047,5.105h-14.312l0.836-3.574c1.238,0,2.134-0.417,2.69-1.249
				c0.321-0.491,0.698-1.664,1.131-3.517l5.466-23.372c0.451-1.928,0.626-3.12,0.526-3.573c-0.133-0.756-0.844-1.135-2.133-1.135
				l0.835-3.574H188.6c5.518,0,9.687,1.796,12.51,5.389C204.008,13.818,204.759,18.659,203.361,24.634z M191.472,24.861
				c1.282-5.483,1.559-9.53,0.828-12.14c-0.857-2.95-3.117-4.425-6.778-4.425l-6.487,27.74c-0.318,1.361-0.306,2.515,0.042,3.46
				c0.311,1.097,0.957,1.646,1.937,1.646c2.114,0,4.122-1.532,6.025-4.595C188.852,33.635,190.331,29.74,191.472,24.861z"/>
		</g>
	</g>
</g>
</svg>
