<?xml version="1.0" encoding="utf-8"?>
<!-- Generator: Adobe Illustrator 15.1.0, SVG Export Plug-In . SVG Version: 6.00 Build 0)  -->
<!DOCTYPE svg PUBLIC "-//W3C//DTD SVG 1.1//EN" "http://www.w3.org/Graphics/SVG/1.1/DTD/svg11.dtd">
<svg version="1.1" id="图层_1" xmlns="http://www.w3.org/2000/svg" xmlns:xlink="http://www.w3.org/1999/xlink" x="0px" y="0px"
	 width="207.973px" height="49.438px" viewBox="0 0 207.973 49.438" enable-background="new 0 0 207.973 49.438"
	 xml:space="preserve">
<g>
	<linearGradient id="SVGID_1_" gradientUnits="userSpaceOnUse" x1="103.9871" y1="48.8049" x2="103.9871" y2="0.6335">
		<stop  offset="0" style="stop-color:#FFDB3F"/>
		<stop  offset="0.5706" style="stop-color:#FFFF1B"/>
		<stop  offset="1" style="stop-color:#FFE300"/>
	</linearGradient>
	<path fill="url(#SVGID_1_)" d="M184.927,1.04l-2.658,10.858c-0.025-0.004-0.051-0.009-0.076-0.013
		c-1.211-0.207-2.858-0.304-5.225-0.304c-0.003,0-0.006,0-0.009,0c-2.222,0.023-3.976,0.144-5.378,0.37
		c-1.61,0.266-3.309,0.869-5.039,1.788c-1.83,0.966-3.492,2.338-4.936,4.074c-0.077,0.093-0.154,0.188-0.23,0.284
		c-0.447-1.18-1.147-2.256-2.086-3.206c-1.184-1.204-2.646-2.05-4.326-2.511c-1.295-0.362-3.015-0.593-5.336-0.711
		c-2.095-0.067-3.629-0.028-4.773,0.116c-0.275,0.034-0.548,0.075-0.816,0.123l-13.123-0.035l0.065-0.265h-18.394l-4.485,18.342
		c-0.335,1.364-0.593,2.084-0.734,2.424c-0.025,0.008-0.053,0.017-0.084,0.024c-0.59,0.15-1.148,0.259-1.679,0.324
		c0.038-0.212,0.091-0.463,0.163-0.758l4.92-20.124H92.545l-1.012,4.138c-0.016-0.024-0.031-0.048-0.047-0.071
		c-0.761-1.139-1.819-2.056-3.127-2.716c-0.989-0.504-2.147-0.914-3.422-1.211c-1.273-0.304-2.646-0.458-4.081-0.458H70.529
		c-1.066,0-2.215,0.109-3.521,0.334c-1.274,0.223-2.487,0.542-3.607,0.951c-1.234,0.451-2.349,1.041-3.315,1.753
		c0.042-0.312,0.076-0.604,0.101-0.88c0.144-1.556,0.012-3.304-0.392-5.194c-0.545-2.556-1.989-4.638-4.179-6.021
		c-1.955-1.234-4.679-1.834-8.327-1.834H16.377L4.595,48.805H23.13l2.58-10.544l9.294,0.001c-0.022,0.155-0.059,0.348-0.116,0.581
		l-2.438,9.962h19.118l1.155-4.669c0.07,0.125,0.144,0.248,0.219,0.369c0.746,1.171,1.856,2.116,3.298,2.806
		c1.039,0.498,2.149,0.878,3.319,1.132c1.128,0.24,2.354,0.362,3.64,0.362h10.439c1.431,0,2.82-0.126,4.133-0.376
		c1.271-0.243,2.47-0.568,3.567-0.968c1.357-0.496,2.574-1.209,3.62-2.122c1.011-0.885,1.915-2.034,2.686-3.41
		c0.318,0.864,0.747,1.673,1.285,2.421c1.089,1.511,2.589,2.629,4.451,3.319c1.518,0.565,3.24,0.889,5.264,0.986
		c1.773,0.087,3.062,0.088,3.956,0.027c1.316-0.047,2.547-0.221,3.67-0.52l0.448,0.642h29.319l4.141-16.928
		c0.546-2.318,0.95-2.953,0.966-2.977c0.237-0.334,0.519-0.596,0.874-0.807c0.045-0.026,0.259-0.139,0.774-0.197
		c-0.063,0.464-0.178,1.087-0.38,1.909l-4.646,18.999h18.256l1.057-4.319c0.142,0.19,0.293,0.373,0.452,0.549
		c1.202,1.309,2.86,2.272,4.941,2.868c1.687,0.477,3.562,0.73,5.577,0.755c0.965,0.04,2.333,0.028,4.155-0.044
		c0.394-0.016,0.76-0.033,1.101-0.053l-0.06,0.244h18.446L203.378,1.04H184.927z M70.996,28.965
		c0.074-0.301,0.188-0.562,0.345-0.795c0.173-0.258,0.287-0.34,0.294-0.345c0.164-0.105,0.316-0.177,0.455-0.212
		c0.175-0.044,0.497-0.097,1.033-0.097h0.597l-0.969,3.966c-0.074,0.301-0.188,0.6-0.347,0.91c-0.148,0.288-0.245,0.386-0.245,0.386
		c-0.001,0.001-0.118,0.1-0.443,0.252c-0.035,0.017-0.174,0.07-0.491,0.07h-1.239L70.996,28.965z M30.695,17.874h9.253
		c0.026,0,0.052,0,0.076,0c-0.039,0.303-0.121,0.731-0.285,1.31c-0.299,1.057-0.514,1.567-0.61,1.769
		c-0.023,0.019-0.048,0.036-0.075,0.053c-0.193,0.034-0.708,0.102-1.77,0.102h-7.38L30.695,17.874z M174.679,30.613
		c0.399-1.794,0.758-2.452,0.869-2.628c0.198-0.316,0.325-0.412,0.323-0.412c0.322-0.17,0.712-0.327,1.162-0.469l1.491-0.019
		c-0.046,0.416-0.148,1.04-0.371,1.929c-0.327,1.299-0.649,2.349-0.958,3.117c-0.135,0.334-0.238,0.53-0.296,0.628
		c-0.029,0.015-0.072,0.033-0.133,0.054c-0.172,0.06-0.352,0.088-0.549,0.088l-1.994-0.023
		C174.266,32.577,174.377,31.918,174.679,30.613z"/>
	<linearGradient id="SVGID_2_" gradientUnits="userSpaceOnUse" x1="103.9861" y1="4.6331" x2="103.9861" y2="44.8054">
		<stop  offset="0" style="stop-color:#FF173F"/>
		<stop  offset="1" style="stop-color:#B60000"/>
	</linearGradient>
	<path fill="url(#SVGID_2_)" d="M88.678,25.311l-2.026,8.285c-0.27,1.103-0.607,2.177-1.014,3.229
		c-0.407,1.054-0.891,2.086-1.456,3.101c-0.562,1.014-1.184,1.813-1.858,2.404c-0.674,0.589-1.46,1.047-2.358,1.375
		c-0.9,0.328-1.882,0.593-2.945,0.796c-1.063,0.202-2.191,0.305-3.382,0.305H63.2c-1.023,0-1.958-0.094-2.807-0.274
		c-0.849-0.185-1.656-0.459-2.421-0.826c-0.768-0.367-1.316-0.816-1.654-1.347c-0.335-0.532-0.584-1.187-0.747-1.968
		c-0.161-0.784-0.214-1.763-0.158-2.942c0.054-1.177,0.244-2.433,0.572-3.766l2.047-8.371c0.286-1.175,0.665-2.282,1.13-3.314
		c0.467-1.033,0.958-1.863,1.475-2.491c0.516-0.628,1.109-1.191,1.782-1.693c0.672-0.502,1.458-0.918,2.356-1.247
		c0.9-0.328,1.875-0.584,2.924-0.768c1.049-0.181,1.993-0.274,2.831-0.274h10.327c1.117,0,2.168,0.114,3.152,0.349
		c0.986,0.23,1.831,0.526,2.533,0.884c0.705,0.355,1.244,0.814,1.619,1.375s0.63,1.149,0.768,1.765
		c0.137,0.619,0.191,1.428,0.158,2.433C89.055,23.331,88.918,24.329,88.678,25.311z M74.602,23.517h-1.479
		c-0.763,0-1.431,0.072-2.005,0.216c-0.577,0.145-1.13,0.393-1.661,0.737c-0.533,0.349-1.009,0.835-1.433,1.463
		s-0.726,1.319-0.912,2.072l-1.068,4.373c-0.181,0.732-0.247,1.439-0.198,2.114c0.049,0.677,0.226,1.193,0.528,1.552
		c0.305,0.355,0.747,0.621,1.326,0.795c0.582,0.173,1.291,0.261,2.128,0.261h1.396c0.818,0,1.549-0.148,2.188-0.448
		c0.642-0.301,1.151-0.633,1.528-1.001c0.379-0.367,0.719-0.844,1.021-1.433c0.302-0.591,0.525-1.184,0.672-1.781l1.083-4.432
		c0.205-0.83,0.235-1.551,0.096-2.155c-0.14-0.61-0.356-1.08-0.647-1.405c-0.291-0.331-0.635-0.567-1.025-0.712
		C75.749,23.59,75.235,23.517,74.602,23.517z M19.991,44.805l2.58-10.544h13.118c0.886,0.021,1.619,0.286,2.191,0.798
		c0.572,0.51,0.933,1.149,1.082,1.912c0.149,0.763,0.086,1.705-0.188,2.823l-1.226,5.011h10.89l2.077-8.399
		c0.165-0.675,0.258-1.4,0.281-2.173c0.021-0.771-0.156-1.5-0.528-2.184c-0.372-0.687-0.805-1.212-1.303-1.577
		c-0.495-0.365-1.123-0.751-1.879-1.158l2.53-1.33c0.889-0.442,1.666-1.026,2.326-1.752c0.661-0.721,1.256-1.712,1.786-2.965
		c0.554-1.352,1.077-3.056,1.572-5.12c0.496-2.065,0.798-3.675,0.903-4.833c0.107-1.156,0-2.489-0.321-3.992
		c-0.321-1.505-1.121-2.663-2.402-3.473c-1.282-0.809-3.345-1.216-6.192-1.216H19.516L9.692,44.805H19.991z M27.555,13.874h12.393
		c1.284,0,2.221,0.226,2.808,0.679c0.586,0.453,0.979,1.037,1.177,1.751c0.247,0.967,0.133,2.289-0.344,3.968
		c-0.475,1.679-0.935,2.766-1.381,3.259c-0.447,0.493-0.968,0.879-1.568,1.158c-0.598,0.281-1.717,0.419-3.354,0.419H24.808
		L27.555,13.874z M108.602,44.514l0.203,0.291h9.938l7.141-29.196h-10.157l-3.74,15.293c-0.572,2.337-1.135,3.766-1.691,4.286
		c-0.556,0.521-1.23,0.884-2.023,1.087c-0.793,0.202-1.561,0.349-2.298,0.433c-0.737,0.088-1.284,0.102-1.642,0.044
		c-0.692-0.059-1.265-0.266-1.719-0.623c-0.451-0.356-0.749-0.685-0.889-0.984c-0.142-0.298-0.213-0.8-0.218-1.505
		c-0.004-0.705,0.121-1.579,0.376-2.624l3.709-15.174h-9.908l-3.145,12.86c-0.816,3.34-1.307,5.612-1.473,6.821
		c-0.165,1.205-0.177,2.373-0.035,3.503c0.144,1.128,0.523,2.124,1.142,2.984c0.619,0.858,1.486,1.496,2.603,1.91
		c1.117,0.416,2.47,0.662,4.061,0.739c1.591,0.077,2.775,0.086,3.552,0.027c1.182-0.037,2.235-0.197,3.158-0.477
		c0.926-0.281,1.631-0.556,2.114-0.825c0.486-0.271,0.986-0.589,1.505-0.956L108.602,44.514z M132.899,44.805l3.387-13.845
		c0.5-2.123,1.033-3.582,1.596-4.372c0.561-0.791,1.256-1.436,2.084-1.926c0.828-0.496,1.894-0.761,3.191-0.798
		c1.308-0.019,2.252,0.232,2.821,0.753c0.574,0.521,0.87,1.268,0.889,2.245c0.017,0.977-0.17,2.272-0.567,3.894l-3.436,14.049
		h10.021l3.514-14.368c0.944-3.938,1.468-6.442,1.572-7.512c0.105-1.072,0.047-2.038-0.172-2.898
		c-0.221-0.858-0.674-1.635-1.36-2.331c-0.684-0.695-1.533-1.184-2.55-1.463c-1.009-0.282-2.475-0.468-4.387-0.565
		c-1.832-0.058-3.217-0.03-4.158,0.088c-0.944,0.116-1.803,0.337-2.58,0.666c-0.778,0.328-1.397,0.646-1.844,0.956
		c-0.449,0.309-0.996,0.763-1.645,1.36l0.693-2.84l-9.79-0.026l-7.076,28.933H132.899z M159.35,38.853
		c0.056,1.554,0.435,2.712,1.13,3.477c0.698,0.761,1.727,1.336,3.082,1.724c1.358,0.384,2.889,0.589,4.597,0.605
		c0.884,0.039,2.182,0.025,3.891-0.042c1.71-0.067,2.875-0.175,3.496-0.319c0.621-0.144,1.14-0.283,1.557-0.421
		c0.414-0.132,0.951-0.337,1.611-0.606l-0.374,1.535h10.215l9.728-39.765h-10.216l-2.977,12.162l-1.356-0.726
		c-0.512-0.27-1.249-0.486-2.214-0.649c-0.966-0.165-2.471-0.247-4.518-0.247c-1.995,0.021-3.584,0.125-4.768,0.316
		c-1.182,0.195-2.457,0.653-3.824,1.379c-1.37,0.723-2.612,1.753-3.73,3.098c-1.119,1.342-2.092,3.238-2.915,5.691
		c-0.609,1.812-1.179,4.01-1.707,6.59C159.529,35.234,159.291,37.299,159.35,38.853z M172.156,25.865
		c0.532-0.852,1.146-1.458,1.842-1.826c0.693-0.367,1.51-0.677,2.445-0.928l2.295-0.028c0.968,0,1.688,0.117,2.163,0.347
		c0.473,0.233,0.858,0.575,1.156,1.028c0.3,0.456,0.465,1.107,0.5,1.956c0.019,0.907-0.155,2.101-0.525,3.577
		c-0.372,1.478-0.747,2.688-1.126,3.633c-0.381,0.947-0.788,1.624-1.224,2.028c-0.433,0.407-0.97,0.722-1.611,0.942
		c-0.64,0.221-1.312,0.323-2.015,0.305l-2.559-0.03c-1.172,0-1.958-0.156-2.358-0.465c-0.397-0.305-0.665-0.854-0.8-1.636
		c-0.133-0.781-0.175-1.472-0.121-2.07c0.054-0.598,0.239-1.584,0.556-2.953C171.161,28.006,171.621,26.711,172.156,25.865z"/>
</g>
</svg>
