<?xml version="1.0" encoding="iso-8859-1"?>
<!-- Generator: Adobe Illustrator 15.1.0, SVG Export Plug-In . SVG Version: 6.00 Build 0)  -->
<!DOCTYPE svg PUBLIC "-//W3C//DTD SVG 1.1//EN" "http://www.w3.org/Graphics/SVG/1.1/DTD/svg11.dtd">
<svg version="1.1" id="&#x56FE;&#x5C42;_1" xmlns="http://www.w3.org/2000/svg" xmlns:xlink="http://www.w3.org/1999/xlink" x="0px"
	 y="0px" width="226.666px" height="82.666px" viewBox="0 0 226.666 82.666" style="enable-background:new 0 0 226.666 82.666;"
	 xml:space="preserve">
<g>
	<linearGradient id="SVGID_1_" gradientUnits="userSpaceOnUse" x1="113.333" y1="1.5" x2="113.333" y2="81.166">
		<stop  offset="0" style="stop-color:#FFFF65"/>
		<stop  offset="1" style="stop-color:#FFC500"/>
	</linearGradient>
	<path style="fill:url(#SVGID_1_);" d="M41.333,81.166C19.369,81.166,1.5,63.297,1.5,41.333S19.369,1.5,41.333,1.5h144
		c21.964,0,39.833,17.869,39.833,39.833s-17.869,39.833-39.833,39.833H41.333z"/>
	<path style="fill:#FFA000;" d="M185.333,3c21.171,0,38.333,17.162,38.333,38.333s-17.162,38.333-38.333,38.333h-144
		C20.162,79.666,3,62.504,3,41.333S20.162,3,41.333,3H185.333 M185.333,0h-144C18.542,0,0,18.542,0,41.333
		s18.542,41.333,41.333,41.333h144c22.791,0,41.333-18.542,41.333-41.333S208.124,0,185.333,0L185.333,0z"/>
</g>
<g>
	<path style="fill:#C80000;" d="M43.404,58.002h-3.015V47.315h-4.847v-2.634h4.847V29.759h12.366v-4.275H36.763v-2.633h35v2.633
		h-16.03v4.275h12.442v14.923h5v2.634h-5v6.03c0,2.799-1.323,4.211-3.969,4.236c-1.629,0.025-3.715,0.025-6.26,0
		c-0.152-0.865-0.343-1.832-0.572-2.9c2.086,0.152,3.893,0.229,5.42,0.229c1.552,0.051,2.328-0.61,2.328-1.984v-5.61H43.404V58.002z
		 M43.404,37.201h9.351v-4.962h-9.351V37.201z M43.404,44.682h9.351v-5h-9.351V44.682z M65.121,32.239h-9.389v4.962h9.389V32.239z
		 M55.732,44.682h9.389v-5h-9.389V44.682z"/>
	<path style="fill:#C80000;" d="M74.477,49.834c1.743-0.432,3.562-0.909,5.458-1.431V37.659h-4.771v-2.748h4.771v-8.55h-4.962
		v-2.748h12.786v2.748h-4.923v8.55h4.351v2.748h-4.351v9.923c1.653-0.47,3.358-0.979,5.114-1.526c0,1.222,0.025,2.227,0.076,3.016
		c-3.74,1.119-8.066,2.455-12.977,4.007L74.477,49.834z M88.484,34.377h23.206v2.824h-7.213v15.076c0,1.195,0.585,1.794,1.756,1.794
		h1.183c1.247,0,1.946-0.7,2.099-2.1c0.178-1.094,0.331-2.607,0.458-4.542c0.916,0.407,1.896,0.776,2.939,1.107
		c-0.178,1.628-0.382,3.065-0.611,4.312c-0.407,2.697-1.769,4.046-4.084,4.046h-2.633c-2.748,0-4.122-1.387-4.122-4.16V37.201
		h-5.515c-0.064,6.056-0.744,10.433-2.042,13.129c-1.45,3.181-4.198,5.878-8.244,8.092c-0.56-0.84-1.234-1.756-2.023-2.748
		c3.868-2.112,6.387-4.478,7.557-7.099c1.081-2.036,1.654-5.827,1.718-11.374h-4.428V34.377z M90.24,23.309h19.389v2.824H90.24
		V23.309z"/>
	<path style="fill:#C80000;" d="M113.87,36.591h37.938v3.358H113.87V36.591z"/>
	<path style="fill:#C80000;" d="M161.01,37.087c1.171,0.891,2.163,1.577,2.978,2.061c-3.257,5.802-5.903,10.814-7.938,15.038
		l-3.092-2.023C155.579,48.193,158.262,43.168,161.01,37.087z M156.469,23.079c2.061,2.062,4.376,4.593,6.946,7.596l-2.481,2.29
		c-2.468-3.257-4.694-5.891-6.679-7.901L156.469,23.079z M177.69,31.896c-0.025,1.272-0.083,2.525-0.172,3.76
		c1.705,8.664,6.24,15.057,13.606,19.179c-1.043,1.12-1.87,2.112-2.48,2.978c-6.387-4.491-10.483-10.02-12.29-16.584
		c-1.667,7.1-6.247,12.817-13.74,17.156c-0.509-0.789-1.209-1.692-2.1-2.71c7.812-4.122,12.328-9.924,13.55-17.404
		c0.356-1.832,0.547-3.956,0.572-6.374H177.69z M182.728,36.934c1.145-2.111,2.176-4.389,3.092-6.832H170.8
		c-1.106,2.532-2.334,4.962-3.683,7.29c-0.916-0.661-1.832-1.208-2.748-1.641c2.977-4.86,5.14-9.886,6.488-15.076l3.092,0.878
		c-0.611,1.997-1.285,3.943-2.023,5.839h17.176v2.71c-1.044,2.825-2.188,5.471-3.436,7.939
		C184.801,37.608,183.822,37.239,182.728,36.934z"/>
</g>
</svg>
